Concurrent state:

@startuml
hide empty description

[*] --> Active

state Active {
    [*] -> NumLockOff
    NumLockOff --> NumLockOn : EvNumLockPressed
    NumLockOn --> NumLockOff : EvNumLockPressed
    --
    [*] -> CapsLockOff
    CapsLockOff --> CapsLockOn : EvCapsLockPressed
    CapsLockOn --> CapsLockOff : EvCapsLockPressed
    --
    [*] -> ScrollLockOff
    ScrollLockOff --> ScrollLockOn : EvCapsLockPressed
    ScrollLockOn --> ScrollLockOff : EvCapsLockPressed
}

@enduml
